<?xml version="1.0" standalone="no"?>
<!DOCTYPE svg PUBLIC "-//W3C//DTD SVG 20010904//EN"
 "http://www.w3.org/TR/2001/REC-SVG-20010904/DTD/svg10.dtd">
<svg version="1.0" xmlns="http://www.w3.org/2000/svg"
 width="1025.000000pt" height="1025.000000pt" viewBox="0 0 1025.000000 1025.000000"
 preserveAspectRatio="xMidYMid meet">
<metadata>
Created by potrace 1.16, written by Peter Selinger 2001-2019
</metadata>
<g transform="translate(0.000000,1025.000000) scale(0.100000,-0.100000)"
fill="#000000" stroke="none">
<path d="M4820 9314 c-153 -14 -343 -39 -460 -60 -1735 -320 -3090 -1699
-3374 -3434 -44 -269 -51 -360 -51 -690 0 -329 7 -416 51 -690 213 -1330 1084
-2494 2309 -3086 456 -220 925 -351 1435 -400 241 -22 706 -15 930 16 644 87
1217 299 1754 648 934 607 1591 1572 1816 2666 57 281 81 525 80 851 0 669
-137 1262 -429 1851 -279 564 -656 1033 -1146 1424 -610 487 -1330 787 -2125
885 -129 16 -674 29 -790 19z m-18 -1519 c157 -41 825 -333 1508 -660 146 -70
279 -133 297 -141 l32 -14 19 43 c67 148 275 583 282 591 12 12 149 -85 229
-164 296 -289 385 -695 245 -1118 -24 -73 -177 -401 -1054 -2260 l-303 -643
32 -42 c157 -210 195 -430 122 -707 -21 -77 -77 -229 -89 -242 -4 -4 -69 39
-144 95 -138 105 -312 227 -322 227 -4 0 -45 -29 -91 -65 -132 -101 -282 -168
-429 -194 -85 -15 -277 -13 -372 3 -72 13 -194 44 -202 51 -2 2 64 147 147
322 83 175 151 323 151 329 0 13 -217 119 -645 314 -512 235 -583 268 -750
353 -204 105 -346 200 -457 305 -107 103 -172 197 -212 311 -27 78 -30 97 -29
206 1 238 59 407 361 1045 76 162 208 457 293 655 274 644 434 934 628 1139
121 126 268 221 402 256 92 24 269 27 351 5z"/>
<path d="M4492 7735 c-82 -18 -191 -71 -273 -133 -237 -180 -436 -512 -748
-1248 -77 -182 -176 -407 -219 -500 -44 -93 -119 -252 -166 -354 -110 -232
-187 -426 -223 -555 -25 -88 -28 -117 -28 -245 0 -134 3 -150 27 -213 76 -190
252 -354 563 -525 61 -33 220 -111 355 -172 676 -310 887 -409 1022 -476 l147
-74 -44 -92 c-23 -51 -91 -194 -149 -317 -58 -124 -106 -228 -106 -232 0 -16
151 -42 270 -46 258 -11 474 66 657 231 33 31 64 56 68 56 10 0 238 -157 350
-241 53 -39 97 -70 99 -68 11 13 51 137 67 209 23 106 25 272 4 355 -21 84
-75 189 -133 261 l-49 60 664 1410 c365 775 674 1438 688 1474 142 378 97 733
-130 1018 -67 83 -223 218 -237 204 -4 -4 -71 -142 -148 -307 -78 -165 -146
-304 -151 -310 -6 -6 -34 3 -77 24 -142 72 -559 269 -838 396 -513 235 -869
385 -978 410 -75 18 -200 18 -284 0z m596 -1035 c130 -31 270 -90 632 -265
184 -89 395 -186 468 -216 97 -40 131 -58 128 -69 -4 -15 -1056 -2252 -1062
-2259 -2 -2 -89 35 -193 82 -104 48 -274 123 -378 168 -234 101 -443 204 -536
266 -103 67 -227 194 -265 271 -84 170 -80 363 14 624 15 40 70 168 124 283
54 116 127 276 163 357 161 358 266 540 373 645 137 134 296 168 532 113z
m-1425 -2217 c71 -45 84 -121 38 -218 -31 -67 -74 -110 -120 -120 -27 -6 -29
-9 -18 -26 6 -10 30 -29 54 -41 37 -20 40 -25 31 -43 -6 -11 -12 -22 -14 -24
-2 -2 -23 8 -47 23 -30 17 -52 40 -66 68 -11 24 -38 54 -58 68 -78 53 -91 140
-36 241 56 105 145 132 236 72z m167 -203 c0 -6 14 -10 30 -10 38 0 86 -24
100 -49 18 -35 11 -76 -30 -159 -38 -80 -50 -91 -79 -73 -12 8 -9 23 22 88 44
93 46 117 12 139 -45 30 -68 13 -110 -81 -33 -75 -40 -85 -59 -79 -12 3 -24 9
-28 13 -3 3 18 59 49 123 50 105 58 116 74 107 11 -5 19 -14 19 -19z m346
-146 c115 -55 60 -254 -69 -254 -98 0 -153 89 -113 183 32 77 108 106 182 71z
m398 -73 c4 -6 -131 -314 -149 -339 -5 -6 -55 22 -55 30 0 4 -10 8 -22 8 -62
0 -116 69 -104 132 21 110 128 167 205 110 l31 -23 22 46 c16 33 28 45 44 45
13 0 25 -4 28 -9z m154 -190 c41 -28 57 -79 42 -126 -6 -19 -15 -37 -20 -40
-5 -3 -47 12 -93 34 -74 34 -86 37 -90 22 -10 -41 40 -91 93 -91 15 0 20 -6
20 -25 0 -32 -30 -33 -90 -2 -81 41 -101 97 -65 177 25 56 68 82 126 77 26 -2
60 -13 77 -26z m217 -102 c52 -14 99 -57 84 -76 -16 -18 -33 -16 -54 7 -24 27
-79 26 -105 0 -64 -64 -36 -150 50 -150 26 0 30 -4 30 -26 0 -26 -2 -26 -46
-21 -55 6 -92 31 -118 79 -17 31 -18 41 -8 75 15 52 47 92 86 109 38 16 33 16
81 3z m251 -118 c23 -10 49 -29 58 -42 38 -55 3 -166 -65 -203 -48 -26 -102
-15 -146 29 -27 27 -33 40 -33 77 0 57 35 118 80 140 44 22 55 22 106 -1z
m265 -17 c17 -21 0 -49 -32 -49 -24 0 -36 23 -25 51 7 19 40 18 57 -2z m-71
-74 l39 -20 -54 -116 c-30 -64 -55 -118 -55 -120 0 -2 -11 2 -25 8 -14 6 -25
15 -25 20 0 5 19 50 42 100 32 69 39 91 29 98 -8 4 -11 16 -6 29 8 26 7 26 55
1z m134 -66 c9 -3 16 -12 16 -18 0 -8 10 -11 28 -9 37 6 94 -34 105 -74 8 -26
3 -45 -33 -125 -24 -51 -44 -94 -46 -96 -2 -3 -42 15 -52 23 -2 2 12 34 31 71
19 38 38 79 42 92 10 32 -19 62 -60 62 -31 0 -35 -4 -73 -85 -40 -83 -52 -94
-81 -76 -12 8 -5 30 39 125 29 64 57 116 61 116 4 0 14 -3 23 -6z"/>
<path d="M4759 6642 c-135 -45 -248 -171 -369 -412 -63 -124 -344 -735 -402
-874 -151 -359 -137 -593 44 -778 110 -111 280 -206 693 -386 127 -55 290
-127 363 -161 l133 -60 81 167 c44 92 158 334 253 537 217 466 653 1391 671
1426 l13 26 -92 38 c-51 21 -238 109 -417 196 -513 248 -620 288 -805 295 -89
3 -121 1 -166 -14z"/>
<path d="M3527 4440 c-36 -29 -67 -98 -67 -152 0 -38 5 -50 26 -67 52 -41 116
-17 153 57 41 82 34 140 -20 167 -38 20 -62 19 -92 -5z"/>
<path d="M4087 4089 c-24 -14 -47 -62 -47 -98 0 -68 76 -83 117 -22 52 77 2
162 -70 120z"/>
<path d="M4340 3950 c-22 -22 -40 -61 -40 -86 0 -23 46 -64 72 -64 19 0 30 12
51 55 15 31 27 64 27 75 0 41 -76 54 -110 20z"/>
<path d="M4610 3835 c-15 -19 -17 -16 46 -48 53 -27 64 -26 64 4 0 45 -82 78
-110 44z"/>
<path d="M5122 3604 c-54 -37 -69 -122 -27 -150 50 -33 115 26 115 104 0 47
-49 73 -88 46z"/>
</g>
</svg>
